<?xml version="1.0" encoding="UTF-8"?>
<!-- Generator: Adobe Illustrator 19.2.1, SVG Export Plug-In . SVG Version: 6.00 Build 0)  -->
<svg version="1.1" id="Layer_1" xmlns="http://www.w3.org/2000/svg" xmlns:xlink="http://www.w3.org/1999/xlink" x="0px" y="0px" viewBox="0 0 660 137.2" style="enable-background:new 0 0 660 137.2;" xml:space="preserve">
<style type="text/css">
	.st0{fill:#FF8300;}
	.st1{fill:#ffffff;}
	.st2{fill:#00A7CE;}
</style>
<g>
	<path class="st0" d="M56,50.1c-0.9,2.1-2.2,4.2-4.1,6c-4,4-9,5.6-14.2,5.8l19.5,19.5c0.3-5.2,1.8-10.2,5.8-14.2   c1.8-1.8,3.9-3.1,6-4.1C63,60.9,58.2,56.1,56,50.1z"/>
	<path class="st0" d="M51.7,94.2c7.4-7.4,7.4-19.4,0-26.8c-7.4-7.4-19.4-7.4-26.8,0c-7.4,7.4-7.4,19.4,0,26.8   C32.3,101.6,44.3,101.6,51.7,94.2"/>
	<path class="st1" d="M90.1,29.1c7.4,7.4,7.4,19.4,0,26.8c-7.4,7.4-19.4,7.4-26.8,0c-7.4-7.4-7.4-19.4,0-26.8   C70.7,21.7,82.7,21.7,90.1,29.1"/>
	<path class="st2" d="M166.9,29.1c-7.4-7.4-19.4-7.4-26.8,0c-3.6,3.6-5.4,8.2-5.5,12.8l0,0c-0.3,5.2-1.8,10.2-5.8,14.2   c-1.8,1.8-3.9,3.2-6,4.1c6.1,2.2,10.9,7,13.1,13.1c0.9-2.2,2.2-4.2,4.1-6c4-4,9-5.6,14.2-5.8l0,0c4.7-0.1,9.3-2,12.8-5.5   C174.3,48.5,174.3,36.5,166.9,29.1z M160.3,49.3c-1.8,1.8-4.3,2.8-6.8,2.8c-2.6,0-5-1-6.8-2.8c-3.8-3.8-3.8-9.9,0-13.7   c1.8-1.8,4.3-2.8,6.8-2.8c2.6,0,5,1,6.8,2.8c1.8,1.8,2.8,4.3,2.8,6.8C163.2,45.1,162.2,47.5,160.3,49.3z"/>
	<path class="st1" d="M128.5,67.5c7.4,7.4,7.4,19.4,0,26.8c-7.4,7.4-19.4,7.4-26.8,0c-7.4-7.4-7.4-19.4,0-26.8   C109.1,60.1,121.1,60.1,128.5,67.5"/>
	<path class="st1" d="M101.5,56.1c-4-4-5.6-9-5.8-14.2L76.1,61.4c5.2,0.3,10.2,1.8,14.2,5.8c4,4,5.6,9,5.8,14.2l19.5-19.5   C110.5,61.7,105.5,60.1,101.5,56.1"/>
</g>
<path class="st1" d="M336.9,100.1c-9.6,0-15.6-5.9-15.6-15.3V27.1c0-2.3,1.7-4,4-4c2.3,0,4,1.8,4,4v19.6h14.1c2.1,0,3.9,1.8,3.9,3.9  c0,2-1.8,3.8-3.9,3.8h-14.1v29.9c0,5.5,2.7,8.1,8.4,8.1c2.1,0,3.4-0.4,4.3-0.7c0.5-0.2,0.9-0.3,1.4-0.3c2,0,3.8,1.8,3.8,3.8  c0,1.6-0.9,2.9-2.6,3.5C342.7,99.3,340.2,100.1,336.9,100.1z"/>
<path class="st1" d="M379.4,100.1c-6.9,0-14.9-2.7-20.4-6.8c-0.7-0.5-1.5-1.8-1.5-3.1c0-2.1,1.8-4,4-4c0.9,0,1.8,0.3,2.5,0.8  c5,3.6,10.2,5.4,15.7,5.4c6.2,0,10.5-3.3,10.5-7.9v-0.2c0-4.3-4.2-6.3-12.1-8.5l-0.2-0.1l-0.2-0.1c-8-2.3-17.9-5.2-17.9-15.1v-0.2  c0-8.9,7.6-15.4,18.1-15.4c5.5,0,11.7,1.7,17,4.7l0.1,0.1c1.3,0.9,2,2.1,2,3.5c0,2.1-1.8,4-4,4c-0.8,0-1.6-0.2-2.2-0.6  c-4.3-2.5-8.8-3.9-13.1-3.9c-5.8,0-9.8,2.9-9.8,7.1v0.2c0,4.2,5.3,6,12.8,8.2c6.6,1.8,17.6,4.9,17.6,15.6v0.2  C398.2,93.2,390.3,100.1,379.4,100.1z"/>
<path class="st1" d="M415.6,99.5c-2.3,0-4.1-1.7-4.1-4V27.1c0-2.3,1.7-4.1,4-4.1c2.3,0,4,1.8,4,4.1v68.3  C419.6,97.8,417.9,99.5,415.6,99.5z"/>
<path class="st1" d="M491.1,100.2c-15.2,0-27.2-12.1-27.2-27.6v-0.2c0-15.6,12-27.8,27.4-27.8c15.2,0,27.2,12.1,27.2,27.6v0.2  C518.5,88.1,506.5,100.2,491.1,100.2z M491.1,52.4c-10.7,0-18.8,8.5-18.8,19.9v0.2c0,11.2,8.3,20.1,19,20.1  c10.7,0,18.8-8.5,18.8-19.9v-0.2C510.1,61.2,501.8,52.4,491.1,52.4z"/>
<path class="st1" d="M283.5,100.2c-14.9,0-26.1-11.9-26.1-27.7v-0.2c0-15.5,11.1-27.7,25.3-27.7c14.2,0,24.5,11.6,24.5,27.5  c0,2-1.9,3.9-4,3.9H276c-2.2,0-3.8-1.6-3.8-3.7c0-2.2,1.6-3.8,3.8-3.8h22.7c-1.1-7.8-5.8-16.2-16.2-16.2c-8.5,0-15.3,6.8-16.7,16.4  l-0.2,1.6c-0.2,1.7-0.2,3.2,0,4.6l0,0.1c1,10.3,8.4,17.5,17.9,17.5c5.8,0,10.6-2,15.1-6.4c0.8-0.8,1.7-1.1,2.7-1.1  c2.2,0,4,1.7,4,3.9c0,0.7-0.2,1.8-1.3,2.8C298.1,97.7,292,100.2,283.5,100.2z"/>
<path class="st1" d="M532.9,120.5c-2.3,0-4.1-1.7-4.1-4.1V70c0-15.3,11.8-25.3,25.8-25.3c15.2,0,27.2,12.1,27.2,27.6v0.2  c0,15.6-12,27.8-27.4,27.8c-6.9,0-13.1-2.5-17.6-7.1v23.2C536.8,118.8,535.2,120.5,532.9,120.5z M536.8,74.8  c0.9,10.1,7.7,17.2,16.9,17.7c0.3,0,0.7,0,1,0c3.3,0,6.4-0.8,9.1-2.4c0.3-0.2,0.5-0.3,0.8-0.5c2.2-1.5,4.1-3.4,5.5-5.9  c0.2-0.3,0.3-0.5,0.5-0.8c0.3-0.5,0.6-1.1,0.8-1.7c1.1-2.7,1.7-5.6,1.7-8.6v-0.2c0-2.4-0.4-4.8-1.1-7c-0.2-0.6-0.4-1.2-0.7-1.8  c-0.2-0.6-0.5-1.2-0.8-1.7c-1.7-3-4-5.5-6.9-7.2c-0.3-0.2-0.5-0.3-0.8-0.4c-0.5-0.3-1.1-0.5-1.7-0.7c-1.2-0.4-2.4-0.8-3.6-1  c-0.6-0.1-1.3-0.2-1.9-0.2c-0.3,0-0.7,0-1,0c-9.7,0-16.7,7.1-17.7,17.6h0V74.8z"/>
<path class="st1" d="M454.7,99.5c-1.1,0-2.1-0.4-2.9-1.2L427,73.2c-1.5-1.5-1.6-3.8-0.2-5.4l0.1-0.2l22.6-20.9  c0.7-0.8,1.6-1.2,2.6-1.3c1.1-0.1,2.1,0.2,2.9,0.9c1.7,1.4,1.9,4,0.5,5.7l-0.2,0.2l-20,18.2l22.1,22.4c0.8,0.8,1.2,1.8,1.2,2.9  c0,1.1-0.4,2.1-1.2,2.8C456.8,99.1,455.8,99.5,454.7,99.5z"/>
<path class="st1" d="M241.8,100.2c-2.3,0-4.1-1.8-4.1-4.1v-28c0-9.8-5.4-15.6-14.5-15.6c-9.1,0-14.5,5.8-14.5,15.6v28  c0,2.3-1.8,4.1-4.1,4.1c-2.3,0-4-1.7-4-4.1V67.3c0-13.6,8.6-22.4,21.8-22.4h1.4c13.3,0,21.8,8.8,21.8,22.4v28.8  C245.7,98.5,244.1,100.2,241.8,100.2z"/>
<path class="st1" d="M618,100.2c-14.9,0-26.1-11.9-26.1-27.7v-0.2c0-15.5,11.1-27.7,25.3-27.7c14.2,0,24.5,11.6,24.5,27.5  c0,2.1-1.8,3.9-4,3.9h-27.3c-2.2,0-3.8-1.6-3.8-3.7c0-2.2,1.6-3.8,3.8-3.8h22.7c-1.1-7.8-5.8-16.2-16.2-16.2  c-8.5,0-15.3,6.8-16.7,16.4l-0.2,1.6c-0.2,1.7-0.2,3.2,0,4.6l0,0.1c1,10.3,8.4,17.5,17.9,17.5c5.8,0,10.6-2,15.1-6.4  c0.8-0.8,1.7-1.1,2.7-1.1c2.2,0,4,1.7,4,3.9c0,0.7-0.2,1.8-1.3,2.8C632.6,97.7,626.5,100.2,618,100.2z"/>
</svg>